<svg xmlns="http://www.w3.org/2000/svg" viewBox="0 0 64 64">
  <!-- Circular background -->
  <circle cx="32" cy="32" r="30" fill="#0071e3" />
  
  <!-- Inner circle for depth -->
  <circle cx="32" cy="32" r="27" fill="#1982e8" />
  
  <!-- User chat bubble - simplified for small sizes -->
  <path d="M15 23 C15 20, 18 17, 22 17 L35 17 C38 17, 42 20, 42 23 L42 30 C42 33, 38 36, 35 36 L25 36 L20 42 L20 36 L22 36 C18 36, 15 33, 15 30 Z" 
        fill="white" />
  
  <!-- Assistant chat bubble - simplified for small sizes -->
  <path d="M49 41 C49 44, 46 47, 42 47 L29 47 C26 47, 22 44, 22 41 L22 34 C22 31, 26 28, 29 28 L39 28 L44 22 L44 28 L42 28 C46 28, 49 31, 49 34 Z" 
        fill="white" opacity="0.8" />
        
  <!-- "FI" text in the user bubble - made larger for favicon clarity -->
  <text x="25" y="30" font-family="Arial, sans-serif" font-weight="bold" font-size="13" fill="#0071e3">FI</text>
</svg>
